<svg width="28" height="28" viewBox="0 0 28 28" fill="none" xmlns="http://www.w3.org/2000/svg">
<rect width="28" height="28" rx="14" fill="#D781E8"/>
<g clip-path="url(#clip0_34_7)">
<path d="M20.7435 5.66664C20.7435 5.5193 20.685 5.37799 20.5808 5.2738C20.4766 5.16962 20.3353 5.11108 20.1879 5.11108H7.96571C7.81837 5.11108 7.67706 5.16962 7.57287 5.2738C7.46869 5.37799 7.41016 5.5193 7.41016 5.66664V6.2222H20.7435V5.66664Z" fill="#F8F8F8"/>
<path d="M21.8446 7.88887C21.8446 7.74153 21.7861 7.60022 21.6819 7.49603C21.5777 7.39184 21.4364 7.33331 21.2891 7.33331H6.84462C6.69728 7.33331 6.55597 7.39184 6.45178 7.49603C6.34759 7.60022 6.28906 7.74153 6.28906 7.88887V8.44443H21.8446V7.88887Z" fill="#F8F8F8"/>
<path d="M21.8447 9.55554H6.15577C5.87877 9.55554 5.61311 9.66558 5.41724 9.86145C5.22137 10.0573 5.11133 10.323 5.11133 10.6V20.7333C5.11133 21.0103 5.22137 21.276 5.41724 21.4718C5.61311 21.6677 5.87877 21.7778 6.15577 21.7778H21.8447C22.1217 21.7778 22.3874 21.6677 22.5832 21.4718C22.7791 21.276 22.8891 21.0103 22.8891 20.7333V10.6C22.8891 10.323 22.7791 10.0573 22.5832 9.86145C22.3874 9.66558 22.1217 9.55554 21.8447 9.55554V9.55554ZM8.75578 11.4722C9.08541 11.4722 9.40765 11.57 9.68173 11.7531C9.95581 11.9362 10.1694 12.1965 10.2956 12.5011C10.4217 12.8056 10.4547 13.1407 10.3904 13.464C10.3261 13.7873 10.1674 14.0843 9.93429 14.3174C9.7012 14.5505 9.40423 14.7092 9.08093 14.7735C8.75763 14.8378 8.42252 14.8048 8.11797 14.6787C7.81343 14.5525 7.55313 14.3389 7.36999 14.0648C7.18686 13.7907 7.08911 13.4685 7.08911 13.1389C7.08911 12.6968 7.2647 12.2729 7.57727 11.9604C7.88983 11.6478 8.31375 11.4722 8.75578 11.4722V11.4722ZM20.6669 19.5555H7.33355L11.478 15.4055C11.5519 15.3323 11.6517 15.2911 11.7558 15.2911C11.8598 15.2911 11.9597 15.3323 12.0336 15.4055L14.078 17.45L16.8947 14.5555C16.9686 14.4823 17.0684 14.4411 17.1725 14.4411C17.2765 14.4411 17.3764 14.4823 17.4502 14.5555L20.6669 17.7722V19.5555Z" fill="#F8F8F8"/>
</g>
<defs>
<clipPath id="clip0_34_7">
<rect width="20" height="20" fill="white" transform="translate(4 4)"/>
</clipPath>
</defs>
</svg>
